<?xml version="1.0" standalone="no"?>
<!DOCTYPE svg PUBLIC "-//W3C//DTD SVG 20010904//EN"
 "http://www.w3.org/TR/2001/REC-SVG-20010904/DTD/svg10.dtd">
<svg version="1.0" xmlns="http://www.w3.org/2000/svg"
 width="1024.000000pt" height="1024.000000pt" viewBox="0 0 1024.000000 1024.000000"
 preserveAspectRatio="xMidYMid meet">
<metadata>
Created by potrace 1.14, written by Peter Selinger 2001-2017
</metadata>
<g transform="translate(0.000000,1024.000000) scale(0.100000,-0.100000)"
fill="#000000" stroke="none">
<path d="M5405 9895 c-33 -13 -129 -46 -212 -73 -159 -52 -180 -51 -123 3 17
16 30 31 30 35 0 3 -33 4 -72 2 -99 -5 -249 -45 -324 -87 -73 -41 -202 -140
-334 -256 -120 -107 -147 -123 -245 -149 -54 -15 -102 -36 -148 -67 -61 -41
-147 -125 -147 -143 0 -16 -32 -19 -59 -6 -21 11 -30 26 -39 66 -7 28 -12 66
-13 83 l-1 32 -15 -35 c-11 -26 -14 -53 -9 -106 l6 -72 -42 -6 c-60 -10 -186
-67 -267 -120 -81 -54 -212 -190 -259 -269 -48 -79 -81 -181 -109 -336 -26
-146 -32 -161 -73 -206 -16 -16 -44 -59 -63 -95 -95 -175 -93 -337 5 -485 29
-44 32 -54 34 -144 3 -175 44 -409 93 -535 11 -28 38 -109 61 -181 22 -71 51
-154 65 -182 l24 -53 -37 0 c-63 0 -111 -20 -156 -63 -119 -115 -114 -313 14
-572 72 -144 129 -222 247 -335 104 -101 197 -161 259 -168 42 -4 44 -7 54
-46 65 -252 155 -446 279 -601 62 -78 212 -229 289 -290 88 -71 92 -81 92
-241 0 -129 -12 -318 -25 -389 -5 -24 -22 -40 -93 -86 -48 -31 -132 -93 -187
-136 -55 -44 -165 -122 -245 -173 -334 -213 -384 -266 -456 -475 -15 -44 -32
-86 -38 -94 -6 -8 -58 -36 -116 -63 -114 -54 -463 -188 -488 -188 -21 0 -136
-37 -191 -62 -24 -10 -46 -17 -49 -14 -3 3 -11 1 -17 -4 -7 -6 -24 -11 -38
-12 -14 -1 -24 -5 -21 -9 2 -4 -20 -15 -48 -24 -29 -9 -61 -21 -71 -26 -10 -6
-31 -8 -45 -6 -15 2 -21 2 -14 0 15 -5 -11 -21 -124 -76 -138 -67 -264 -170
-336 -275 -62 -90 -198 -407 -198 -462 0 -11 12 -22 32 -29 17 -6 33 -9 35 -7
2 2 17 40 33 84 102 284 224 466 371 550 55 31 377 163 539 220 47 16 152 55
233 86 81 31 150 56 152 56 12 0 2 -20 -25 -51 -17 -19 -40 -51 -50 -71 -64
-121 -132 -494 -170 -938 -14 -166 -26 -210 -55 -210 -31 0 -299 256 -523 500
-44 48 -52 53 -67 40 -22 -18 -55 -84 -55 -109 0 -83 303 -454 409 -502 134
-60 441 -168 492 -173 19 -2 45 -8 59 -14 27 -12 109 -36 125 -37 6 0 12 -3
15 -6 3 -3 77 -25 165 -48 88 -23 187 -50 220 -61 71 -22 283 -65 289 -59 3 2
-4 29 -14 59 -78 230 -120 415 -120 524 0 44 4 53 38 85 65 62 280 219 317
231 89 29 158 -77 115 -176 -13 -31 -12 -33 31 -85 25 -30 69 -92 98 -138 112
-176 141 -281 121 -428 -7 -48 -18 -102 -25 -120 l-13 -32 56 -6 c31 -3 67 -8
78 -10 26 -6 36 7 52 60 51 172 42 458 -27 850 -11 60 -19 111 -18 112 2 1 33
-24 70 -55 206 -174 453 -266 717 -266 240 1 422 58 631 200 46 31 100 72 119
90 45 42 54 43 46 2 -4 -18 -21 -127 -37 -243 -39 -263 -45 -522 -16 -646 25
-107 28 -110 107 -101 57 6 65 10 63 27 -2 11 -8 62 -15 113 -16 125 -2 210
54 312 46 83 122 199 161 244 14 17 34 44 43 61 16 31 16 33 -4 61 -43 59 -40
77 24 138 32 31 64 56 71 56 17 0 183 -102 255 -157 32 -24 70 -60 85 -80 26
-33 28 -44 27 -117 -1 -90 -31 -214 -90 -369 -20 -51 -40 -105 -46 -122 -6
-16 -15 -34 -19 -39 -5 -6 -9 -18 -9 -28 0 -14 6 -17 23 -13 12 2 49 9 82 15
33 6 110 24 170 40 61 17 151 41 200 55 50 13 146 41 215 61 69 20 152 43 185
51 200 49 630 211 672 252 14 14 46 53 71 86 25 33 49 62 53 65 10 7 102 156
128 208 43 85 43 86 5 136 -19 25 -39 46 -43 46 -5 0 -25 -21 -44 -46 -48 -61
-175 -200 -262 -287 -84 -84 -272 -247 -284 -247 -24 0 -44 93 -57 265 -17
243 -31 363 -60 535 -42 242 -83 360 -157 448 -31 37 -45 62 -34 62 1 0 49
-18 106 -40 84 -32 471 -160 641 -212 62 -19 204 -95 258 -137 127 -101 216
-250 343 -579 8 -22 10 -22 46 -7 20 9 38 17 40 19 6 6 -100 263 -144 349
-119 230 -280 366 -525 443 -563 177 -807 267 -995 366 -129 67 -133 70 -144
111 -61 227 -148 338 -365 466 -60 36 -156 96 -213 135 -58 39 -175 118 -260
176 l-156 106 -6 54 c-4 30 -12 160 -20 289 l-13 234 79 71 c324 286 431 449
561 857 l27 87 48 5 c87 11 169 64 296 194 166 169 276 385 304 601 19 141
-15 239 -108 309 -29 22 -46 27 -94 28 -33 0 -59 3 -59 6 0 4 11 31 24 61 14
31 41 109 61 174 20 66 52 166 71 224 50 155 64 236 71 425 5 131 9 173 21
185 58 57 112 186 112 264 -1 115 -59 251 -145 338 -51 52 -52 54 -64 142 -30
222 -161 488 -307 626 -84 80 -237 145 -405 173 l-71 12 -2 112 c-1 75 -5 116
-13 125 -10 10 -13 4 -13 -29 0 -23 -5 -54 -12 -70 l-12 -28 -3 25 c-6 47 -36
155 -46 168 -15 19 -27 -3 -27 -50 0 -21 -4 -38 -8 -38 -5 0 -21 18 -38 40
-160 221 -204 267 -334 356 -99 66 -172 101 -305 143 -112 36 -140 37 -220 6z
m265 -160 c157 -51 315 -141 396 -227 82 -86 176 -249 189 -328 l6 -35 -23 41
c-51 90 -161 235 -210 277 -130 110 -259 172 -445 213 -305 68 -548 -4 -655
-193 -16 -29 -32 -53 -34 -53 -1 0 3 18 11 40 25 71 103 158 185 207 29 18
160 66 235 86 11 3 74 4 140 3 98 -3 135 -8 205 -31z m-768 -56 c-40 -67 -102
-207 -102 -233 0 -8 -4 -17 -9 -20 -14 -9 0 85 24 159 13 39 21 72 19 74 -5 5
-107 -64 -284 -193 -178 -129 -286 -192 -432 -250 -114 -45 -198 -68 -168 -46
8 6 80 44 160 85 83 43 199 113 270 165 69 50 175 120 235 155 107 62 317 172
323 169 2 -1 -14 -30 -36 -65z m698 -59 c11 -11 20 -31 20 -45 0 -33 -31 -93
-65 -128 -29 -28 -45 -33 -60 -18 -6 5 -21 11 -35 13 -20 2 -26 9 -28 38 -8
84 46 160 114 160 21 0 42 -8 54 -20z m-85 -259 c3 -5 -4 -13 -16 -16 -23 -8
-34 -1 -24 14 8 13 32 14 40 2z m-274 -102 c40 -40 5 -94 -45 -71 -30 13 -35
51 -10 76 20 21 30 20 55 -5z m119 -24 c0 -23 -30 -65 -46 -65 -20 0 -17 23 7
54 23 29 39 34 39 11z m96 0 c14 -35 -42 -125 -77 -125 -19 0 -8 48 21 93 31
49 47 58 56 32z m1063 -211 c29 -8 85 -30 125 -50 182 -92 248 -185 262 -371
l5 -68 -19 55 c-35 103 -77 174 -144 246 -116 122 -235 168 -438 169 -69 0
-145 -3 -170 -7 l-45 -7 41 19 c84 40 259 46 383 14z m-2785 -38 c-55 -18
-126 -47 -157 -65 -77 -44 -159 -128 -193 -198 -27 -53 -29 -69 -32 -186 -3
-110 -6 -128 -19 -125 -26 5 -45 84 -40 168 10 166 105 291 290 379 119 57
125 59 197 59 l55 1 -101 -33z m2812 -135 c58 -35 70 -137 23 -187 -30 -32
-60 -30 -84 6 -23 35 -35 38 -35 10 0 -27 -37 -26 -67 2 -39 36 -29 128 14
128 8 0 17 -10 22 -22 8 -22 9 -21 15 9 7 32 47 73 70 73 6 0 25 -9 42 -19z
m-3051 -183 c14 -13 32 -41 39 -63 12 -34 12 -44 0 -67 -26 -51 -116 -77 -145
-42 -30 36 -5 158 38 183 27 15 39 13 68 -11z m2530 -2 c36 -13 85 -37 108
-52 69 -47 172 -156 201 -212 14 -28 25 -52 23 -52 -2 0 -23 27 -46 59 -99
141 -262 248 -413 270 l-63 9 62 1 c43 1 82 -6 128 -23z m-2338 -122 c8 -22
-5 -61 -23 -68 -24 -9 -46 14 -41 41 2 13 0 26 -5 29 -16 10 -58 -25 -58 -50
0 -28 -8 -36 -26 -29 -22 8 -17 26 17 61 50 51 119 59 136 16z m-410 -51 c-2
-16 -4 -3 -4 27 0 30 2 43 4 28 2 -16 2 -40 0 -55z m1216 -75 c31 -15 74 -43
95 -63 l37 -37 -42 26 c-59 36 -183 76 -235 76 -136 0 -304 -85 -344 -175 -7
-16 -13 -25 -14 -18 -1 43 67 129 134 168 104 61 265 71 369 23z m311 -357
c12 -18 82 -47 109 -45 15 2 52 -8 82 -22 73 -32 123 -30 216 6 74 29 168 44
355 57 l70 5 52 -59 c67 -76 100 -129 144 -233 38 -88 61 -170 73 -253 5 -41
2 -55 -19 -92 -15 -24 -36 -51 -48 -59 -12 -9 -19 -19 -15 -22 8 -8 67 29 152
96 33 26 67 51 75 55 24 14 -56 -92 -98 -129 -46 -41 -148 -126 -182 -150
l-25 -18 35 5 c61 10 76 15 150 46 124 53 223 118 328 216 59 54 68 58 119 52
55 -6 93 -40 130 -114 14 -29 27 -53 30 -53 2 0 1 5 -3 12 -4 6 -3 8 4 5 5 -4
13 -31 17 -60 12 -86 44 -175 106 -297 52 -101 60 -126 70 -205 31 -257 1
-781 -67 -1158 -9 -48 -14 -90 -12 -92 2 -3 14 14 26 38 21 40 26 38 23 -8 -1
-19 0 -19 7 -1 6 14 11 16 16 7 5 -8 19 1 46 31 37 43 157 112 212 123 21 4
35 18 55 58 24 45 28 64 28 135 0 82 -1 85 -33 113 -21 19 -43 29 -64 29 l-33
0 26 26 c23 22 29 24 46 14 11 -7 30 -29 44 -48 l24 -36 9 47 c6 28 15 47 23
47 30 0 9 -203 -32 -295 -15 -35 -15 -38 -1 -26 25 21 81 127 111 211 32 90
42 183 25 234 -15 45 -66 86 -109 86 -48 0 -118 -77 -177 -195 -26 -52 -49
-93 -52 -91 -6 6 27 219 39 255 18 51 129 112 206 113 89 0 137 -69 136 -197
0 -200 -112 -432 -298 -621 -140 -141 -217 -175 -293 -127 -13 8 -25 13 -27
11 -1 -2 -23 -77 -49 -166 -111 -396 -225 -568 -576 -870 -322 -276 -522 -430
-598 -456 -78 -28 -200 -39 -351 -33 -216 9 -295 36 -426 146 -33 28 -127 106
-210 173 -459 374 -558 479 -675 723 -71 147 -139 354 -157 478 -3 20 -9 37
-15 37 -5 0 -7 12 -3 28 3 15 -3 84 -14 152 -51 322 -65 501 -66 835 0 367 -3
352 94 551 66 136 70 152 73 244 1 36 4 57 6 48 3 -15 8 -13 28 12 14 16 22
35 18 41 -4 8 -3 9 5 5 13 -8 78 42 73 56 -1 5 2 7 8 3 5 -3 24 8 42 24 95 86
111 101 114 101 1 0 13 -17 25 -37 88 -146 186 -249 265 -280 16 -6 16 -3 -4
21 -12 16 -22 34 -22 40 0 6 -9 28 -20 48 -57 107 -78 302 -41 383 34 76 99
114 326 196 209 74 304 95 319 70z m1063 -39 c65 -31 109 -160 118 -344 5 -92
3 -101 -20 -137 -36 -57 -41 -56 -44 7 -4 105 -68 319 -136 453 l-27 52 37 -7
c20 -4 53 -15 72 -24z m-1954 -244 c-4 -7 -8 -16 -8 -20 0 -14 -15 -21 -15 -7
0 8 5 20 12 27 16 16 21 15 11 0z m14 -50 c-3 -8 -6 -5 -6 6 -1 11 2 17 5 13
3 -3 4 -12 1 -19z m-52 2 c-3 -5 -11 -10 -16 -10 -6 0 -7 5 -4 10 3 6 11 10
16 10 6 0 7 -4 4 -10z m-40 -41 c11 -16 1 -19 -13 -3 -7 8 -8 14 -3 14 5 0 13
-5 16 -11z m102 -33 c0 -17 -1 -24 -4 -16 -3 8 -9 22 -14 31 -5 10 -4 16 4 16
7 0 13 -14 14 -31z m-179 -26 c-7 -10 -14 -17 -17 -15 -4 4 18 35 25 35 2 0
-1 -9 -8 -20z m-1 -82 c-3 -7 -5 -2 -5 12 0 14 2 19 5 13 2 -7 2 -19 0 -25z
m33 -32 c0 -2 -7 -7 -16 -10 -8 -3 -12 -2 -9 4 6 10 25 14 25 6z m-568 -1123
c92 -50 113 -95 133 -283 6 -57 5 -63 -7 -50 -8 8 -23 38 -33 65 -34 94 -101
172 -174 202 -124 52 -166 -175 -69 -374 16 -34 39 -72 51 -84 l21 -23 7 25
c7 23 7 23 8 2 1 -13 6 -23 11 -23 6 0 10 -6 10 -13 0 -20 50 -68 90 -86 20
-9 44 -24 53 -33 9 -9 40 -24 69 -33 54 -17 137 -86 138 -114 0 -8 6 -11 16
-7 13 5 15 1 12 -23 -2 -17 -1 -28 4 -25 19 12 6 -15 -19 -40 -31 -32 -51 -30
-122 12 -71 41 -217 188 -276 277 -71 107 -129 226 -149 306 -32 131 -15 284
37 327 45 37 114 36 189 -5z m-52 -258 c0 -1 4 -25 9 -52 11 -55 -2 -125 -33
-178 -10 -17 -15 -21 -11 -11 3 11 0 23 -6 27 -14 8 -18 188 -6 233 l8 28 19
-23 c11 -12 20 -23 20 -24z m74 -53 c-16 -8 -32 -19 -35 -25 -4 -5 -9 15 -10
45 l-4 56 39 -31 38 -30 -28 -15z m84 -69 c-19 -22 -30 -63 -17 -63 5 0 6 -12
3 -26 -5 -19 -4 -25 5 -20 7 5 11 -2 10 -21 -1 -17 -3 -21 -6 -10 -2 9 -9 17
-14 17 -16 0 -10 -20 16 -45 13 -14 20 -25 16 -25 -16 0 -59 51 -64 77 -8 45
28 133 55 133 7 0 5 -7 -4 -17z m3545 -38 c-3 -9 -8 -14 -10 -11 -3 3 -2 9 2
15 9 16 15 13 8 -4z m-32 -58 c-10 -9 -11 -8 -5 6 3 10 9 15 12 12 3 -3 0 -11
-7 -18z m68 -32 c0 -5 -6 1 -14 15 -8 14 -14 30 -14 35 0 6 6 -1 14 -15 8 -14
14 -29 14 -35z m-82 -7 c-3 -8 -6 -5 -6 6 -1 11 2 17 5 13 3 -3 4 -12 1 -19z
m63 -58 c0 -5 -5 -10 -11 -10 -5 0 -7 5 -4 10 3 6 8 10 11 10 2 0 4 -4 4 -10z
m-55 -40 c3 -5 1 -10 -4 -10 -6 0 -11 5 -11 10 0 6 2 10 4 10 3 0 8 -4 11 -10z
m-10 -22 c4 4 2 -3 -4 -15 -6 -13 -14 -23 -17 -23 -3 0 -2 4 1 10 3 5 1 20 -5
32 -10 21 -10 21 3 6 8 -10 18 -14 22 -10z m-43 -30 c-8 -8 -9 -4 -5 13 4 13
8 18 11 10 2 -7 -1 -18 -6 -23z m-25 -96 c-10 -10 -17 -24 -17 -32 0 -10 -3
-10 -15 0 -20 17 -19 23 8 36 34 17 42 16 24 -4z m-2278 -1665 c32 -68 131
-342 131 -364 0 -8 5 -11 12 -7 7 4 8 3 4 -5 -4 -6 9 -59 28 -118 20 -58 36
-111 36 -118 0 -6 21 -54 46 -105 35 -70 48 -90 56 -79 7 10 8 8 3 -7 -3 -12
0 -28 7 -35 8 -8 24 -30 37 -49 68 -100 170 -152 306 -156 80 -3 149 11 139
28 -4 7 -3 8 5 4 26 -17 114 61 181 159 18 28 36 52 40 55 8 6 61 97 77 130 6
14 25 57 43 95 17 39 38 82 46 97 8 14 14 32 14 39 0 6 11 35 25 63 13 28 26
60 28 71 2 11 7 27 10 35 9 21 48 132 54 153 7 21 23 23 23 2 0 -8 -4 -15 -10
-15 -5 0 -10 -9 -10 -21 0 -27 -27 -135 -44 -174 -7 -16 -26 -66 -41 -110 -15
-44 -31 -84 -35 -90 -4 -5 -17 -41 -30 -80 -21 -65 -67 -181 -92 -232 -6 -12
-8 -29 -4 -38 3 -9 2 -13 -3 -10 -8 4 -28 -34 -22 -43 1 -1 -6 -16 -14 -32 -9
-17 -13 -36 -9 -43 4 -7 3 -9 -1 -4 -5 4 -15 -10 -22 -30 -41 -113 -62 -186
-57 -194 3 -5 0 -9 -7 -9 -7 0 -10 -3 -7 -6 4 -3 0 -22 -8 -41 -15 -36 -11
-59 6 -33 7 11 10 11 10 2 0 -7 -7 -15 -15 -18 -8 -4 -15 -17 -15 -30 0 -13
-5 -24 -11 -24 -6 0 -9 -6 -6 -12 2 -7 -4 -44 -14 -82 -10 -38 -15 -81 -12
-96 3 -16 0 -31 -6 -35 -7 -4 -9 -19 -5 -40 3 -18 2 -41 -4 -51 -7 -12 -5 -22
6 -35 14 -17 17 -15 45 24 17 23 36 46 44 50 8 5 11 16 8 28 -5 14 -2 17 8 13
7 -2 20 3 28 12 12 16 12 17 -1 9 -8 -4 -12 -5 -8 -1 3 4 10 8 15 8 16 0 44
19 39 26 -5 9 104 44 141 46 29 1 29 11 1 30 -28 20 -65 20 -113 0 -55 -23
-69 -14 -50 32 8 20 12 40 9 45 -3 5 -1 9 4 9 6 0 12 10 16 23 8 32 118 197
154 231 35 32 54 28 46 -12 -12 -70 86 -172 178 -186 45 -6 138 13 164 34 20
17 19 -13 -4 -82 -24 -71 -57 -127 -147 -247 -176 -233 -435 -420 -660 -476
-314 -78 -688 110 -973 490 -78 104 -142 223 -142 263 0 22 3 23 45 16 49 -7
139 12 129 27 -3 5 2 6 10 3 9 -3 16 -1 16 5 0 6 7 11 16 11 10 0 14 5 10 16
-3 9 -2 12 5 9 26 -17 101 104 129 208 13 49 34 62 45 27 3 -11 11 -20 16 -20
5 0 9 -6 9 -12 1 -16 53 -123 71 -144 6 -8 9 -17 6 -21 -4 -3 -2 -14 4 -25 6
-11 21 -56 35 -101 13 -45 27 -89 31 -97 11 -26 13 -44 8 -67 -5 -20 -9 -21
-79 -16 -79 6 -154 -7 -221 -39 -33 -16 -35 -18 -11 -13 87 19 244 -4 287 -41
8 -8 20 -14 26 -14 18 0 98 -77 118 -114 11 -20 23 -36 28 -36 4 0 6 -3 3 -8
-2 -4 2 -18 10 -32 15 -25 15 -25 9 10 -5 26 -4 31 4 20 7 -9 11 -10 11 -3 0
6 -4 15 -10 18 -5 3 -10 36 -10 73 0 37 -7 101 -16 142 -8 41 -17 84 -18 95
-10 82 -19 116 -28 104 -7 -10 -8 -5 -3 14 3 16 1 43 -4 60 -13 38 -48 180
-65 255 -6 30 -15 50 -19 46 -4 -5 -5 -1 -1 9 3 10 1 17 -6 17 -6 0 -9 4 -6 8
5 9 -8 72 -24 107 -4 11 -14 43 -20 70 -7 28 -26 95 -42 150 -16 55 -37 126
-45 158 -11 42 -19 55 -25 45 -6 -9 -7 -6 -3 9 4 13 -2 48 -14 80 -11 32 -31
101 -45 153 -30 111 -60 193 -87 236 -10 17 -16 34 -13 37 14 14 35 -9 63 -66z
m-355 -366 c3 -4 -19 -57 -49 -117 -57 -112 -105 -250 -126 -364 -17 -89 -17
-444 0 -545 25 -158 117 -487 165 -591 14 -31 26 -61 26 -66 0 -6 11 -23 25
-40 14 -16 25 -39 25 -51 0 -19 -3 -18 -36 14 -54 52 -203 233 -268 327 -32
45 -59 82 -61 82 -3 0 -195 -77 -680 -272 -113 -46 -195 -70 -195 -58 0 5 26
44 58 87 73 98 313 436 464 653 138 198 184 275 318 530 56 107 117 218 136
245 79 119 177 201 198 166z m1823 -23 c-3 -8 -6 -5 -6 6 -1 11 2 17 5 13 3
-3 4 -12 1 -19z m275 -35 c62 -66 130 -165 208 -303 108 -192 227 -379 463
-735 329 -494 391 -595 365 -595 -7 0 -47 13 -88 29 -126 48 -583 228 -676
267 -87 36 -88 36 -103 16 -9 -11 -50 -65 -91 -119 -86 -113 -231 -293 -236
-293 -2 0 -8 9 -14 19 -8 16 1 44 44 139 161 358 242 739 216 1017 -18 189
-33 248 -123 480 -19 50 -38 100 -42 113 -12 39 19 25 77 -35z m-1635 -75 c-3
-8 -6 -5 -6 6 -1 11 2 17 5 13 3 -3 4 -12 1 -19z m150 -560 c-3 -8 -6 -5 -6 6
-1 11 2 17 5 13 3 -3 4 -12 1 -19z m-610 -50 c-3 -8 -6 -5 -6 6 -1 11 2 17 5
13 3 -3 4 -12 1 -19z m3001 -146 c18 -12 20 -17 10 -24 -8 -6 -5 -7 11 -3 19
6 23 4 18 -9 -5 -13 0 -16 27 -16 18 0 48 -10 66 -22 58 -41 150 -238 164
-353 6 -44 5 -47 -6 -25 -7 14 -18 28 -24 32 -7 4 -15 20 -19 35 -7 29 -50 85
-58 77 -3 -3 -4 1 -3 8 1 16 -63 93 -71 85 -3 -4 -12 0 -19 8 -17 17 -18 29
-2 19 7 -4 8 -3 4 5 -4 6 -12 8 -18 5 -7 -5 -9 -1 -5 9 4 11 1 17 -8 17 -8 0
-15 6 -15 14 0 8 -5 18 -11 22 -7 4 -9 0 -5 -12 8 -25 -9 -53 -17 -29 -4 9 -3
13 3 10 6 -3 10 -1 10 4 0 6 -4 11 -10 11 -5 0 -10 14 -10 31 0 16 -4 28 -9
25 -5 -3 -7 -16 -5 -29 3 -12 -7 5 -21 38 -14 33 -30 68 -35 77 -6 10 -10 20
-10 23 0 6 31 -9 68 -33z m-4046 -32 c-37 -35 -137 -192 -159 -252 -12 -31
-43 -88 -68 -125 -42 -63 -45 -65 -39 -33 10 60 55 203 76 245 45 88 77 123
140 154 72 36 79 38 50 11z m1625 -2 c-3 -8 -6 -5 -6 6 -1 11 2 17 5 13 3 -3
4 -12 1 -19z m-560 -40 c-3 -8 -6 -5 -6 6 -1 11 2 17 5 13 3 -3 4 -12 1 -19z
m565 -3 c-8 -16 -9 -16 -15 -1 -4 10 -3 15 3 11 6 -3 10 -1 10 6 0 7 3 10 6 6
3 -3 2 -13 -4 -22z m105 -47 c-3 -8 -6 -5 -6 6 -1 11 2 17 5 13 3 -3 4 -12 1
-19z m1 -43 c-3 -3 -9 2 -12 12 -6 14 -5 15 5 6 7 -7 10 -15 7 -18z m599 -7
c-3 -8 -6 -5 -6 6 -1 11 2 17 5 13 3 -3 4 -12 1 -19z m40 0 c-3 -8 -6 -5 -6 6
-1 11 2 17 5 13 3 -3 4 -12 1 -19z m1730 -30 c-3 -8 -6 -5 -6 6 -1 11 2 17 5
13 3 -3 4 -12 1 -19z m-2333 -13 c3 -8 1 -15 -4 -15 -6 0 -10 7 -10 15 0 8 2
15 4 15 2 0 6 -7 10 -15z m781 -35 c-3 -5 -11 -10 -16 -10 -6 0 -7 5 -4 10 3
6 11 10 16 10 6 0 7 -4 4 -10z m-970 -90 c-3 -5 -11 -10 -16 -10 -6 0 -7 5 -4
10 3 6 11 10 16 10 6 0 7 -4 4 -10z m1370 -82 c-7 -29 -30 -125 -50 -213 l-37
-160 -102 -98 c-225 -219 -454 -320 -726 -320 -285 -1 -514 94 -728 300 -69
67 -93 98 -102 128 -43 156 -101 388 -98 391 3 2 25 -24 50 -59 61 -83 235
-250 328 -316 309 -218 620 -248 930 -90 163 83 320 212 442 363 44 54 82 105
85 112 3 8 8 14 13 14 4 0 1 -24 -5 -52z m-1178 26 c-3 -3 -12 -4 -19 -1 -8 3
-5 6 6 6 11 1 17 -2 13 -5z m-12 -35 c11 -17 -1 -21 -15 -4 -8 9 -8 15 -2 15
6 0 14 -5 17 -11z m-597 -678 c-1 -3 2 -26 6 -51 3 -25 8 -67 10 -94 4 -49 4
-49 -14 -26 -10 13 -16 31 -13 39 4 12 3 13 -5 3 -7 -10 -22 4 -61 56 -28 38
-51 72 -51 76 0 8 44 77 79 125 l25 34 13 -79 c6 -43 11 -80 11 -83z m1830 51
l38 -77 -79 -105 c-44 -58 -76 -94 -72 -80 4 14 7 35 7 47 0 13 4 20 9 17 5
-3 9 10 9 28 0 18 9 80 20 137 11 57 17 108 13 114 -3 6 -1 7 6 3 6 -4 29 -42
49 -84z"/>
<path d="M3843 7029 c-20 -6 -45 -26 -66 -54 -36 -47 -84 -152 -74 -162 4 -3
41 0 83 6 42 6 143 14 224 18 151 6 221 -1 322 -34 26 -8 56 -12 65 -9 10 4
14 4 10 0 -4 -4 23 -22 60 -41 78 -38 131 -69 166 -98 42 -33 103 -117 134
-181 16 -33 44 -74 61 -90 34 -33 92 -136 92 -163 0 -23 35 -55 53 -48 30 11
35 124 12 257 -9 47 -18 94 -21 105 -13 40 -84 186 -98 200 -8 8 -20 28 -28
45 -7 16 -16 30 -20 30 -5 0 -8 7 -8 16 0 25 -79 187 -97 202 -20 15 -818 16
-870 1z"/>
<path d="M5555 7033 c-29 -7 -44 -22 -67 -66 -23 -46 -49 -129 -43 -136 3 -2
-3 -10 -13 -17 -9 -6 -26 -29 -37 -51 -11 -21 -23 -40 -26 -43 -3 -3 -14 -27
-24 -55 -10 -27 -23 -56 -28 -62 -5 -7 -6 -25 -3 -40 5 -19 4 -24 -3 -14 -7
11 -12 5 -20 -25 -45 -168 -56 -286 -32 -341 7 -18 17 -30 22 -27 5 3 9 -2 9
-12 0 -13 3 -14 14 -4 8 6 12 19 9 27 -4 11 -2 14 5 9 8 -4 12 0 12 11 0 11 7
28 15 39 8 10 15 26 15 35 0 22 60 139 71 139 5 0 9 6 9 14 0 22 100 142 148
177 23 17 39 36 35 41 -3 6 -1 8 4 5 6 -4 16 0 23 8 7 8 19 15 27 15 8 0 11 4
8 10 -4 6 1 7 11 3 14 -5 16 -3 11 11 -5 12 -3 16 5 13 7 -2 25 9 41 24 15 16
32 29 37 29 6 0 10 4 10 8 0 5 11 15 25 22 13 7 22 17 19 22 -3 4 3 8 13 9 16
0 16 1 -2 9 -36 15 490 11 580 -5 43 -8 81 -12 84 -10 8 9 -19 81 -51 135 -18
30 -48 65 -67 77 l-35 23 -395 -1 c-218 -1 -405 -4 -416 -6z m122 -219 c-3 -3
-12 -4 -19 -1 -8 3 -5 6 6 6 11 1 17 -2 13 -5z m104 -12 c-7 -2 -18 1 -23 6
-8 8 -4 9 13 5 13 -4 18 -8 10 -11z m-430 -169 c-12 -20 -14 -14 -5 12 4 9 9
14 11 11 3 -2 0 -13 -6 -23z"/>
<path d="M5933 6813 c9 -2 23 -2 30 0 6 3 -1 5 -18 5 -16 0 -22 -2 -12 -5z"/>
<path d="M4135 6563 c-157 -20 -285 -70 -369 -145 -59 -53 -58 -55 43 -151
197 -185 391 -229 641 -144 58 19 119 37 135 40 24 3 22 4 -12 6 -23 0 -53 -3
-67 -9 -33 -12 -33 0 -2 29 25 23 39 54 51 104 8 37 18 29 86 -73 72 -108 85
-105 54 14 -46 176 -157 286 -322 321 -63 14 -168 17 -238 8z m-97 -190 c-1
-103 51 -184 147 -229 28 -13 46 -24 40 -24 -27 0 -169 42 -205 60 -48 24
-120 95 -120 119 0 9 -7 25 -15 35 -19 26 -19 32 3 39 9 3 46 17 82 31 36 14
66 25 67 25 1 1 2 -25 1 -56z m172 27 c0 -24 -4 -30 -22 -30 -35 0 -51 15 -43
39 4 15 15 21 36 21 26 0 29 -3 29 -30z m243 8 c8 -23 -14 -69 -32 -66 -17 3
-27 39 -17 64 7 17 43 19 49 2z"/>
<path d="M5890 6559 c-143 -21 -252 -102 -314 -233 -47 -99 -82 -271 -37 -183
21 41 112 166 122 167 3 0 11 -18 18 -41 7 -22 29 -59 49 -81 l37 -41 -45 6
c-25 4 -56 9 -70 12 -48 10 10 -11 149 -56 117 -38 146 -43 220 -43 156 1 257
49 395 189 106 107 107 108 56 155 -56 52 -163 106 -252 129 -91 23 -243 33
-328 20z m195 -169 c0 -32 -2 -35 -30 -35 -23 0 -30 5 -35 25 -9 33 7 52 39
48 22 -3 26 -8 26 -38z m254 -15 c12 -12 12 -21 2 -57 -24 -81 -143 -167 -256
-184 -28 -4 -28 -4 -10 8 11 7 39 32 62 55 47 48 58 82 51 172 l-4 59 70 -20
c39 -10 77 -25 85 -33z m-515 8 c-9 -50 -13 -56 -30 -42 -25 20 -9 79 22 79
12 0 14 -8 8 -37z"/>
<path d="M6713 5545 c-3 -9 -3 -18 -1 -21 3 -3 8 4 11 16 6 23 -1 27 -10 5z"/>
<path d="M6683 5510 c-11 -16 -10 -18 2 -14 8 4 15 12 15 20 0 19 -3 18 -17
-6z"/>
<path d="M5406 5403 c4 -21 0 -41 -12 -61 -18 -31 -34 -34 -73 -12 -26 13 -63
4 -118 -29 -47 -29 -50 -44 -10 -49 15 -2 27 -8 27 -15 0 -8 3 -8 12 1 8 8 34
10 82 6 66 -6 73 -5 94 18 33 36 40 115 13 148 l-21 25 6 -32z"/>
<path d="M4805 5410 c-14 -23 -13 -105 2 -128 18 -29 105 -70 87 -41 -4 8 1 9
16 4 37 -12 150 4 157 22 14 37 -101 78 -153 54 -14 -6 -24 -19 -24 -31 0 -11
-4 -20 -10 -20 -5 0 -7 8 -3 18 10 28 35 52 53 52 10 0 20 7 24 15 4 12 -4 15
-40 15 -35 0 -51 6 -70 25 -28 28 -30 29 -39 15z"/>
<path d="M4968 5343 c7 -3 16 -2 19 1 4 3 -2 6 -13 5 -11 0 -14 -3 -6 -6z"/>
<path d="M5091 5214 c-23 -22 -24 -24 -7 -48 12 -19 25 -26 48 -26 30 0 31 0
25 -42 l-6 -43 23 29 c19 22 22 35 16 60 -11 48 -29 76 -50 76 -10 0 -20 4
-22 9 -1 4 -14 -2 -27 -15z"/>
<path d="M5093 5050 c14 -11 30 -20 36 -20 15 0 14 27 -1 36 -8 5 -9 2 -5 -9
3 -10 2 -17 -2 -17 -5 0 -11 7 -15 15 -3 8 -13 15 -22 15 -13 0 -11 -5 9 -20z"/>
<path d="M4865 4919 c-101 -23 -164 -24 -232 -2 -69 22 -87 12 -91 -47 -3 -41
-2 -42 20 -35 55 19 180 -2 274 -46 39 -19 43 -24 40 -51 -3 -22 4 -39 28 -66
l31 -35 -33 6 -34 7 20 -33 c28 -44 95 -94 145 -108 58 -16 191 -4 245 22 60
29 121 133 73 124 -11 -2 -32 0 -48 4 l-28 8 33 7 c20 5 37 17 42 29 23 54 85
94 209 137 63 22 101 20 101 -7 0 -21 23 -11 39 19 13 23 13 29 -3 53 -16 24
-22 26 -59 22 -23 -3 -66 -11 -95 -18 -47 -12 -66 -11 -165 8 -147 29 -391 29
-512 2z"/>
<path d="M7128 2653 c7 -3 16 -2 19 1 4 3 -2 6 -13 5 -11 0 -14 -3 -6 -6z"/>
<path d="M7151 2624 c0 -11 3 -14 6 -6 3 7 2 16 -1 19 -3 4 -6 -2 -5 -13z"/>
<path d="M8500 7050 c-22 -22 -26 -70 -9 -101 6 -11 30 -29 53 -39 41 -17 43
-21 49 -66 4 -37 11 -53 34 -71 15 -13 34 -23 41 -23 9 0 12 -44 12 -185 0
-146 3 -192 15 -215 24 -46 52 -60 122 -60 l63 0 0 -149 c0 -209 -17 -195 240
-199 l202 -3 -5 23 c-3 13 -18 111 -32 218 -28 214 -87 494 -136 655 l-32 103
-196 4 c-222 4 -255 12 -337 88 -50 46 -57 47 -84 20z m586 -930 c11 0 52 2
92 4 81 3 80 5 52 -69 -12 -31 -30 -24 -30 10 0 14 -8 29 -19 34 -26 14 -66
-18 -81 -67 -18 -53 -30 -62 -30 -21 -1 78 -79 107 -80 29 -1 -22 -2 -23 -11
-7 -29 50 33 137 72 101 9 -8 25 -15 35 -14z"/>
<path d="M8629 5717 c-33 -17 -34 -41 -6 -128 32 -96 41 -139 30 -139 -5 0
-26 9 -48 20 -22 11 -47 20 -57 20 -21 0 -38 -29 -38 -65 0 -25 11 -39 87
-104 18 -16 21 -26 16 -55 -5 -31 -1 -39 26 -63 40 -36 40 -57 -3 -225 -42
-161 -87 -293 -129 -371 -42 -80 -139 -156 -199 -157 -46 -1 -84 -52 -73 -101
14 -61 74 -111 164 -133 33 -8 47 -17 49 -31 12 -76 55 -108 130 -98 l42 6 0
-57 c0 -47 -3 -56 -17 -56 -14 0 -15 -2 -5 -9 8 -4 13 -11 13 -15 -1 -3 0 -9
1 -13 0 -5 2 -33 3 -63 4 -113 18 -201 35 -222 13 -17 15 -31 9 -77 -13 -94
-18 -200 -19 -385 -2 -166 -3 -177 -22 -187 -18 -10 -19 -17 -14 -59 7 -55 25
-110 34 -110 4 0 27 31 52 68 l45 67 -1 305 c-1 228 1 296 9 268 10 -36 13
-38 51 -38 23 0 55 -9 72 -19 l31 -19 -1 -95 c-1 -52 2 -93 7 -90 8 5 92 178
128 266 13 28 26 57 31 63 4 6 20 42 35 80 23 61 27 87 32 229 l6 160 47 3 47
3 15 69 c16 70 28 145 47 285 5 44 15 104 20 134 35 174 64 855 42 956 l-9 40
-72 3 c-39 2 -90 -2 -112 -8 -46 -12 -56 -35 -46 -106 l6 -44 -174 0 -174 0
-3 83 c-6 140 -75 246 -140 214z m171 -570 c0 -42 -58 -261 -104 -390 -48
-138 -98 -238 -151 -302 -65 -80 -172 -132 -205 -100 -12 13 -11 15 9 15 41 0
111 43 161 97 55 60 123 194 169 333 35 106 81 301 81 343 0 20 5 27 20 27 14
0 20 -7 20 -23z m160 1 c0 -48 -59 -308 -95 -418 -69 -212 -195 -430 -254
-438 -20 -3 -16 4 30 60 106 127 219 417 264 673 9 55 19 110 21 123 2 12 11
22 19 22 9 0 15 -9 15 -22z m160 13 c0 -31 -54 -318 -71 -380 -61 -220 -167
-476 -201 -487 -11 -3 -22 -4 -25 -1 -2 3 14 38 36 79 86 158 170 419 206 638
8 52 18 110 21 128 3 19 11 32 19 32 8 0 15 -4 15 -9z m138 -83 c-20 -216 -79
-459 -161 -671 -28 -70 -48 -109 -60 -113 -10 -3 -20 -4 -22 -2 -2 2 20 62 50
133 82 197 140 416 165 625 13 108 16 123 28 116 4 -3 5 -42 0 -88z"/>
<path d="M1851 5694 c0 -11 3 -14 6 -6 3 7 2 16 -1 19 -3 4 -6 -2 -5 -13z"/>
<path d="M1861 5644 c0 -11 3 -14 6 -6 3 7 2 16 -1 19 -3 4 -6 -2 -5 -13z"/>
<path d="M968 4548 c-16 -12 -15 -21 7 -132 13 -66 26 -125 29 -132 3 -9 17
-1 42 22 58 52 108 67 212 62 71 -3 94 -8 120 -27 18 -12 32 -18 32 -13 0 13
-52 82 -90 119 -74 72 -305 139 -352 101z"/>
<path d="M1705 4485 c-33 -7 -81 -25 -107 -40 -52 -29 -128 -102 -128 -123 0
-18 50 -7 105 21 30 16 65 22 138 25 89 4 101 2 150 -21 109 -54 170 -130 202
-254 50 -190 -35 -386 -225 -523 -34 -25 -74 -55 -88 -67 -53 -45 -60 -23 -22
61 17 36 30 70 30 76 0 24 -19 6 -50 -50 -26 -46 -38 -59 -51 -55 -33 11 -179
-98 -213 -158 -43 -76 -41 -106 13 -194 135 -220 211 -327 224 -314 18 18 31
12 14 -6 -14 -16 -14 -20 3 -40 24 -31 36 -29 16 1 -10 17 -12 27 -5 31 6 4 8
13 5 21 -3 8 1 14 9 14 8 0 15 -7 15 -15 0 -8 -4 -15 -10 -15 -17 0 -11 -26
10 -45 19 -17 18 -41 -2 -29 -5 3 -3 -7 6 -24 21 -40 118 -143 110 -117 -4 15
-4 17 4 6 6 -8 8 -21 4 -29 -4 -11 -1 -14 10 -9 12 4 14 1 11 -14 -8 -29 5
-23 23 12 8 17 11 28 6 25 -19 -12 15 102 48 160 36 65 105 157 141 191 13 12
91 54 174 95 129 63 160 83 225 145 41 39 86 90 100 113 14 23 42 64 63 91
l37 49 -32 -5 c-18 -2 -58 -12 -87 -23 -43 -14 -57 -24 -62 -44 -24 -92 -122
-192 -224 -231 -39 -15 -116 -44 -173 -66 -56 -21 -104 -35 -107 -31 -3 4 15
30 38 56 24 27 64 75 89 107 58 75 131 130 243 182 61 28 95 50 104 68 20 37
8 57 -34 57 -30 0 -37 -5 -49 -32 -16 -38 -93 -113 -182 -178 -34 -25 -86 -63
-115 -85 -30 -22 -77 -54 -105 -72 l-52 -31 -6 30 c-13 63 -7 82 38 126 50 49
84 113 92 173 7 45 -4 50 -44 19 -16 -13 -28 -17 -32 -10 -9 15 -55 -4 -68
-27 -6 -10 -14 -15 -17 -11 -4 4 24 38 61 76 38 38 78 87 89 108 11 22 29 55
40 74 21 35 44 101 66 194 14 57 6 216 -15 292 -26 98 -128 210 -237 262 -79
37 -136 45 -214 27z m-71 -1050 c-32 -64 -36 -78 -24 -85 13 -8 12 -10 -2 -10
-12 0 -18 8 -18 21 0 34 66 166 77 155 3 -3 -12 -39 -33 -81z m168 -90 c1 -30
2 -65 2 -77 1 -15 -4 -22 -13 -20 -8 2 -18 -3 -22 -10 -6 -9 -9 -9 -9 -1 0 8
-23 10 -77 6 -104 -7 -133 5 -133 52 0 34 1 35 38 35 24 0 65 13 108 35 97 48
104 47 106 -20z m-274 -15 c-7 -10 -14 -18 -15 -16 -6 6 9 36 18 36 5 0 4 -9
-3 -20z m-32 -82 c-8 -30 -12 -36 -14 -21 -3 19 13 63 22 63 2 0 -2 -19 -8
-42z m240 -58 c9 -22 40 -90 69 -151 46 -95 52 -114 43 -135 -6 -13 -17 -24
-25 -24 -7 0 -23 -16 -34 -35 -12 -19 -25 -35 -29 -35 -13 0 -21 31 -14 52 4
14 -3 29 -22 49 l-28 29 -13 -22 c-7 -13 -12 -27 -12 -33 0 -5 6 1 13 14 9 16
15 20 21 12 8 -13 -24 -43 -38 -34 -4 2 -5 14 -1 25 3 12 2 18 -3 15 -9 -6
-53 35 -53 48 0 14 18 2 30 -20 7 -14 16 -23 18 -20 7 6 -31 85 -40 85 -5 0
-8 7 -8 17 0 9 12 -1 30 -26 19 -26 35 -39 43 -35 9 5 9 3 0 -7 -20 -20 -15
-31 6 -17 19 12 18 14 -15 46 -19 18 -34 37 -34 43 0 10 -28 79 -53 128 -9 19
-9 25 1 28 6 3 10 9 7 14 -4 5 1 6 10 3 8 -4 21 -2 28 4 11 9 39 17 75 21 7 0
19 -17 28 -39z m-202 -71 c-8 -17 -9 -13 -9 21 0 34 1 38 9 21 5 -13 5 -29 0
-42z m56 -79 c0 8 3 11 6 7 3 -3 2 -12 -3 -21 -7 -13 -11 -12 -22 7 -13 20
-13 21 2 8 14 -11 17 -11 17 -1z m20 -50 c0 -5 -2 -10 -4 -10 -3 0 -8 5 -11
10 -3 6 -1 10 4 10 6 0 11 -4 11 -10z"/>
<path d="M1725 2930 c3 -5 8 -10 11 -10 2 0 4 5 4 10 0 6 -5 10 -11 10 -5 0
-7 -4 -4 -10z"/>
<path d="M1750 2910 c0 -5 5 -10 11 -10 5 0 7 -4 4 -10 -4 -6 1 -7 11 -3 12 4
15 3 10 -5 -4 -7 -2 -12 3 -12 17 0 13 15 -7 33 -21 19 -32 22 -32 7z"/>
<path d="M1755 2850 c-3 -5 -1 -10 4 -10 6 0 11 5 11 10 0 6 -2 10 -4 10 -3 0
-8 -4 -11 -10z"/>
<path d="M8558 3963 c7 -3 16 -2 19 1 4 3 -2 6 -13 5 -11 0 -14 -3 -6 -6z"/>
<path d="M8530 3949 c12 -8 8 -9 -14 -6 -20 3 -42 -3 -69 -20 -21 -13 -36 -27
-33 -30 3 -3 17 4 32 16 14 11 31 18 37 14 5 -3 7 -2 4 4 -4 6 13 9 46 7 49
-2 51 -2 27 11 -29 17 -52 19 -30 4z"/>
<path d="M8590 3915 c0 -8 2 -15 4 -15 2 0 6 7 10 15 3 8 1 15 -4 15 -6 0 -10
-7 -10 -15z"/>
<path d="M8118 3863 c6 -2 18 -2 25 0 6 3 1 5 -13 5 -14 0 -19 -2 -12 -5z"/>
<path d="M1211 3653 c0 -5 20 -46 44 -93 l44 -85 0 72 1 71 -36 21 c-37 22
-54 26 -53 14z"/>
<path d="M7980 3254 c0 -127 69 -233 143 -219 31 6 37 3 57 -25 18 -25 21 -41
17 -76 -3 -33 -1 -44 9 -44 10 0 14 13 14 45 0 35 4 47 22 56 18 10 19 13 5
20 -8 5 -31 30 -50 57 -26 35 -36 62 -41 105 -4 31 -12 57 -17 57 -12 0 -12
-102 1 -134 12 -34 -3 -34 -52 -1 -43 29 -74 90 -84 163 -9 69 -24 67 -24 -4z"/>
<path d="M8600 3031 c0 -7 -5 -9 -12 -5 -7 5 -8 3 -3 -5 5 -9 10 -10 18 -2 6
6 8 14 4 18 -4 3 -7 1 -7 -6z"/>
<path d="M1935 2690 c-19 -8 -19 -9 2 -9 12 -1 25 4 28 9 7 12 -2 12 -30 0z"/>
<path d="M2005 2680 c11 -5 27 -9 35 -9 9 0 8 4 -5 9 -11 5 -27 9 -35 9 -9 0
-8 -4 5 -9z"/>
<path d="M2130 2675 c-19 -8 -30 -14 -23 -14 6 -1 23 3 36 8 23 9 86 -4 103
-22 4 -4 12 -7 18 -7 17 0 -46 37 -74 43 -14 3 -41 -1 -60 -8z"/>
<path d="M2345 2670 c-3 -5 -2 -10 4 -10 5 0 13 5 16 10 3 6 2 10 -4 10 -5 0
-13 -4 -16 -10z"/>
<path d="M2410 2668 c70 -19 87 -20 51 -3 -18 8 -45 15 -60 14 -23 -1 -22 -2
9 -11z"/>
<path d="M2306 2652 c-3 -5 1 -9 9 -9 8 0 12 4 9 9 -3 4 -7 8 -9 8 -2 0 -6 -4
-9 -8z"/>
<path d="M2368 2643 c7 -3 16 -2 19 1 4 3 -2 6 -13 5 -11 0 -14 -3 -6 -6z"/>
<path d="M2495 2619 c-17 -8 -15 -8 8 -4 26 5 38 -8 17 -18 -6 -3 -5 -4 2 -3
15 3 17 28 3 32 -5 1 -19 -2 -30 -7z"/>
<path d="M2320 2530 c0 -5 5 -10 10 -10 6 0 10 5 10 10 0 6 -4 10 -10 10 -5 0
-10 -4 -10 -10z"/>
<path d="M1945 2510 c10 -11 20 -20 22 -20 2 0 -2 9 -9 20 -7 11 -17 20 -22
20 -5 0 -1 -9 9 -20z"/>
<path d="M1990 2440 c6 -11 15 -20 20 -20 6 0 2 9 -7 20 -10 11 -19 20 -21 20
-1 0 2 -9 8 -20z"/>
<path d="M6185 1006 c-66 -30 -105 -97 -105 -181 0 -49 11 -68 36 -63 14 3 19
11 17 33 -5 84 29 144 94 166 77 25 155 -32 170 -124 5 -36 8 -38 32 -32 14 4
28 9 30 11 9 9 -34 118 -56 145 -47 55 -148 76 -218 45z"/>
<path d="M3894 985 c-69 -30 -140 -152 -103 -176 8 -5 24 -9 35 -9 17 0 23 8
28 38 12 76 76 118 155 101 55 -12 75 -40 81 -112 4 -54 8 -62 26 -65 18 -2
23 3 28 31 8 42 -6 108 -29 143 -36 55 -150 80 -221 49z"/>
<path d="M3955 870 c-3 -5 -1 -10 4 -10 6 0 11 5 11 10 0 6 -2 10 -4 10 -3 0
-8 -4 -11 -10z"/>
<path d="M6271 876 c2 -2 18 -6 34 -10 22 -5 26 -4 15 4 -14 9 -59 15 -49 6z"/>
</g>
</svg>
